<svg width="444" height="190" viewBox="0 0 444 190" fill="none" xmlns="http://www.w3.org/2000/svg">
<rect y="3" width="444" height="187" rx="24" fill="#DDEDFF"/>
<path d="M395.705 172L396.485 169.669H400.04L400.825 172H402.653L399.32 162.545H397.206L393.877 172H395.705ZM396.947 168.293L398.226 164.484H398.3L399.578 168.293H396.947ZM408.344 169.018C408.344 170.098 407.573 170.634 406.834 170.634C406.031 170.634 405.496 170.066 405.496 169.165V164.909H403.824V169.424C403.824 171.127 404.794 172.092 406.188 172.092C407.25 172.092 407.998 171.534 408.321 170.74H408.395V172H410.015V164.909H408.344V169.018ZM414.817 174.807C416.733 174.807 418.146 173.93 418.146 172.115V164.909H416.498V166.082H416.406C416.152 165.569 415.621 164.817 414.37 164.817C412.731 164.817 411.443 166.1 411.443 168.431C411.443 170.744 412.731 171.898 414.365 171.898C415.579 171.898 416.147 171.248 416.406 170.726H416.489V172.069C416.489 173.113 415.796 173.542 414.845 173.542C413.839 173.542 413.396 173.066 413.192 172.651L411.688 173.016C411.992 174.008 413.012 174.807 414.817 174.807ZM414.831 170.587C413.728 170.587 413.146 169.729 413.146 168.422C413.146 167.134 413.719 166.188 414.831 166.188C415.907 166.188 416.498 167.079 416.498 168.422C416.498 169.775 415.898 170.587 414.831 170.587Z" fill="#808191"/>
<rect opacity="0.2" x="210" y="3" width="24" height="180" fill="white"/>
<g clip-path="url(#clip0)">
<circle cx="222" cy="63" r="4" fill="#6C5DD3"/>
<circle cx="222" cy="63" r="2" fill="white"/>
<path d="M218 47L220.586 49.5858C221.367 50.3668 222.633 50.3668 223.414 49.5858L226 47H218Z" fill="#1B1D21"/>
<rect x="194" y="19" width="57" height="28" rx="6" fill="#1B1D21"/>
<path d="M208.862 36.2457H213.372V38H215.006V36.2457H216.216V34.8377H215.006V28.5455H212.873L208.862 34.8839V36.2457ZM213.391 34.8377H210.616V34.7638L213.317 30.4844H213.391V34.8377ZM217.691 38H224.172V36.5689H220.054V36.5043L221.684 34.8469C223.521 33.0835 224.029 32.2248 224.029 31.1584C224.029 29.5749 222.741 28.4162 220.839 28.4162C218.965 28.4162 217.635 29.5795 217.635 31.3754H219.265C219.265 30.4105 219.874 29.8058 220.816 29.8058C221.716 29.8058 222.386 30.3551 222.386 31.2461C222.386 32.0355 221.906 32.5987 220.973 33.5451L217.691 36.7628V38ZM226.813 38.1016C227.358 38.1016 227.824 37.6491 227.829 37.0859C227.824 36.532 227.358 36.0795 226.813 36.0795C226.25 36.0795 225.793 36.532 225.797 37.0859C225.793 37.6491 226.25 38.1016 226.813 38.1016ZM232.708 38.1293C234.707 38.1293 236.101 36.772 236.101 34.8931C236.101 33.0742 234.836 31.7631 233.119 31.7631C232.353 31.7631 231.674 32.0678 231.323 32.4833H231.268L231.54 29.9766H235.607V28.5455H230.123L229.629 33.4205L231.176 33.6744C231.494 33.3235 232.094 33.0881 232.662 33.0927C233.701 33.0973 234.449 33.8636 234.444 34.9347C234.449 35.9918 233.719 36.7443 232.708 36.7443C231.854 36.7443 231.166 36.2042 231.106 35.4286H229.444C229.491 36.9982 230.862 38.1293 232.708 38.1293Z" fill="white"/>
</g>
<path d="M74 140C74 140 89.196 97.3341 129.568 97.3341C169.94 97.3341 158.276 140 185.136 140C211.996 140 229.699 71 272.258 71C304.285 71 315.968 120.153 362.02 120.153C400.267 120.153 392.238 76.3638 419 76.3638" stroke="#A0D7E7" stroke-width="2" stroke-linecap="round"/>
<path d="M74 140C74 140 97.0161 105.558 127.077 105.558C157.138 105.558 153.852 126.374 184.551 126.374C215.249 126.374 228.548 46 272.258 46C315.968 46 325.356 120.24 362.02 120.24C390.583 120.24 397.889 93 419 93" stroke="#6C5DD3" stroke-width="2" stroke-linecap="round"/>
<g clip-path="url(#clip1)">
<path d="M41.3026 34.1293C43.343 34.1431 44.7141 32.7397 44.7095 30.87C44.7141 29.0835 43.44 27.7908 41.7827 27.7908C40.767 27.7908 39.8714 28.2848 39.419 29.0973H39.3544C39.359 27.1076 40.0884 25.8981 41.3995 25.8981C42.212 25.8981 42.7614 26.369 42.9368 27.0938H44.6218C44.4187 25.5657 43.1861 24.4162 41.3995 24.4162C39.1282 24.4162 37.6925 26.3089 37.6925 29.5405C37.6879 33.0075 39.4883 34.12 41.3026 34.1293ZM41.2933 32.7443C40.2823 32.7443 39.5437 31.9087 39.5391 30.9208C39.5483 29.9283 40.3146 29.0973 41.3164 29.0973C42.3182 29.0973 43.0522 29.8913 43.0476 30.907C43.0522 31.9411 42.2951 32.7443 41.2933 32.7443ZM49.7646 34.18C52.0451 34.1847 53.407 32.3842 53.407 29.282C53.407 26.1982 52.0359 24.4162 49.7646 24.4162C47.4933 24.4162 46.1268 26.1935 46.1222 29.282C46.1222 32.3796 47.484 34.18 49.7646 34.18ZM49.7646 32.7351C48.5874 32.7351 47.8487 31.5533 47.8533 29.282C47.858 27.0291 48.592 25.8427 49.7646 25.8427C50.9418 25.8427 51.6758 27.0291 51.6804 29.282C51.6804 31.5533 50.9464 32.7351 49.7646 32.7351Z" fill="#808191"/>
<path d="M37.6694 78.2457H42.1797V80H43.8139V78.2457H45.0234V76.8377H43.8139V70.5455H41.6811L37.6694 76.8839V78.2457ZM42.1982 76.8377H39.4237V76.7638L42.1243 72.4844H42.1982V76.8377ZM49.9931 80.18C52.2736 80.1847 53.6355 78.3842 53.6355 75.282C53.6355 72.1982 52.2644 70.4162 49.9931 70.4162C47.7218 70.4162 46.3553 72.1935 46.3507 75.282C46.3507 78.3796 47.7125 80.18 49.9931 80.18ZM49.9931 78.7351C48.8159 78.7351 48.0772 77.5533 48.0819 75.282C48.0865 73.0291 48.8205 71.8427 49.9931 71.8427C51.1703 71.8427 51.9043 73.0291 51.9089 75.282C51.9089 77.5533 51.1749 78.7351 49.9931 78.7351Z" fill="#808191"/>
<path d="M37.8402 126H44.3217V124.569H40.2038V124.504L41.8335 122.847C43.6708 121.083 44.1786 120.225 44.1786 119.158C44.1786 117.575 42.8906 116.416 40.9886 116.416C39.1143 116.416 37.7848 117.58 37.7848 119.375H39.4144C39.4144 118.411 40.0238 117.806 40.9656 117.806C41.8658 117.806 42.5352 118.355 42.5352 119.246C42.5352 120.036 42.055 120.599 41.1225 121.545L37.8402 124.763V126ZM49.4091 126.18C51.6896 126.185 53.0515 124.384 53.0515 121.282C53.0515 118.198 51.6804 116.416 49.4091 116.416C47.1378 116.416 45.7713 118.194 45.7667 121.282C45.7667 124.38 47.1286 126.18 49.4091 126.18ZM49.4091 124.735C48.2319 124.735 47.4933 123.553 47.4979 121.282C47.5025 119.029 48.2365 117.843 49.4091 117.843C50.5863 117.843 51.3203 119.029 51.3249 121.282C51.3249 123.553 50.5909 124.735 49.4091 124.735Z" fill="#808191"/>
<path d="M41.3349 172.18C43.6154 172.185 44.9773 170.384 44.9773 167.282C44.9773 164.198 43.6062 162.416 41.3349 162.416C39.0636 162.416 37.6971 164.194 37.6925 167.282C37.6925 170.38 39.0543 172.18 41.3349 172.18ZM41.3349 170.735C40.1577 170.735 39.419 169.553 39.4237 167.282C39.4283 165.029 40.1623 163.843 41.3349 163.843C42.5121 163.843 43.2461 165.029 43.2507 167.282C43.2507 169.553 42.5167 170.735 41.3349 170.735Z" fill="#808191"/>
</g>
<path d="M125.381 167.273C125.381 164.217 123.516 162.416 121.037 162.416C118.553 162.416 116.692 164.217 116.692 167.273C116.692 170.324 118.553 172.129 121.037 172.129C123.516 172.129 125.381 170.329 125.381 167.273ZM123.659 167.273C123.659 169.424 122.578 170.592 121.037 170.592C119.499 170.592 118.414 169.424 118.414 167.273C118.414 165.121 119.499 163.953 121.037 163.953C122.578 163.953 123.659 165.121 123.659 167.273ZM130.019 172.138C131.801 172.138 132.937 171.081 133.057 169.576H131.459C131.316 170.338 130.767 170.777 130.033 170.777C128.99 170.777 128.316 169.904 128.316 168.455C128.316 167.023 129.003 166.165 130.033 166.165C130.836 166.165 131.33 166.682 131.459 167.365H133.057C132.941 165.828 131.741 164.817 130.01 164.817C127.932 164.817 126.621 166.317 126.621 168.482C126.621 170.629 127.9 172.138 130.019 172.138ZM137.97 164.909H136.571V163.21H134.9V164.909H133.893V166.202H134.9V170.144C134.891 171.478 135.86 172.134 137.116 172.097C137.591 172.083 137.919 171.991 138.099 171.931L137.817 170.624C137.725 170.647 137.536 170.689 137.328 170.689C136.908 170.689 136.571 170.541 136.571 169.867V166.202H137.97V164.909Z" fill="#808191"/>
<path d="M211.232 162.545V172H212.876V165.491H212.964L215.576 171.972H216.804L219.417 165.505H219.505V172H221.149V162.545H219.053L216.246 169.396H216.135L213.328 162.545H211.232ZM224.98 172.143C226.093 172.143 226.758 171.621 227.062 171.026H227.118V172H228.724V167.254C228.724 165.38 227.196 164.817 225.843 164.817C224.352 164.817 223.207 165.482 222.838 166.774L224.399 166.996C224.565 166.511 225.036 166.096 225.853 166.096C226.628 166.096 227.053 166.493 227.053 167.19V167.217C227.053 167.697 226.55 167.721 225.299 167.854C223.923 168.002 222.607 168.413 222.607 170.01C222.607 171.404 223.628 172.143 224.98 172.143ZM225.414 170.915C224.717 170.915 224.218 170.597 224.218 169.983C224.218 169.341 224.777 169.073 225.525 168.967C225.964 168.907 226.841 168.796 227.058 168.621V169.456C227.058 170.246 226.421 170.915 225.414 170.915ZM230.405 172H232.076V167.831C232.076 166.931 232.754 166.294 233.673 166.294C233.955 166.294 234.305 166.345 234.449 166.391V164.854C234.296 164.826 234.033 164.808 233.848 164.808C233.036 164.808 232.357 165.269 232.099 166.091H232.025V164.909H230.405V172Z" fill="#808191"/>
<path d="M308.87 162.545V169.193C308.865 170.19 308.403 170.721 307.582 170.721C306.815 170.721 306.303 170.255 306.289 169.489H304.586C304.586 171.234 305.86 172.129 307.517 172.129C309.341 172.129 310.564 171.021 310.569 169.193V162.545H308.87ZM316.872 169.018C316.872 170.098 316.101 170.634 315.363 170.634C314.559 170.634 314.024 170.066 314.024 169.165V164.909H312.353V169.424C312.353 171.127 313.322 172.092 314.716 172.092C315.778 172.092 316.526 171.534 316.849 170.74H316.923V172H318.544V164.909H316.872V169.018ZM321.933 162.545H320.262V172H321.933V162.545Z" fill="#808191"/>
<defs>
<clipPath id="clip0">
<rect width="56" height="48" fill="white" transform="translate(194 19)"/>
</clipPath>
<clipPath id="clip1">
<rect width="17" height="176" fill="white" transform="translate(37)"/>
</clipPath>
</defs>
</svg>
