<svg width="32" height="32" viewBox="0 0 32 32" fill="none" xmlns="http://www.w3.org/2000/svg">
<path fill-rule="evenodd" clip-rule="evenodd" d="M16 32C24.8366 32 32 24.8366 32 16C32 7.16344 24.8366 0 16 0C7.16344 0 0 7.16344 0 16C0 24.8366 7.16344 32 16 32Z" fill="url(#paint0_linear)"/>
<path fill-rule="evenodd" clip-rule="evenodd" d="M7 24.0022L7.14963 23.7921L14.226 10.3267L14.2409 10.1841L11.1216 4.30801C10.8601 3.8158 10.1243 3.94027 10.0386 4.49128L7 24.0022Z" fill="#FFC24A"/>
<path fill-rule="evenodd" clip-rule="evenodd" d="M7.08826 23.842L7.20138 23.6207L14.2037 10.2963L11.092 4.3963C10.8334 3.90925 10.1767 4.03343 10.0919 4.57866L7.08826 23.842Z" fill="#FFA712"/>
<path fill-rule="evenodd" clip-rule="evenodd" d="M7.08826 23.842L7.20138 23.6207L14.2037 10.2963L11.092 4.3963C10.8334 3.90925 10.1767 4.03343 10.0919 4.57866L7.08826 23.842Z" fill="black"/>
<path fill-rule="evenodd" clip-rule="evenodd" d="M16.5151 14.6287L18.8377 12.2432L16.5144 7.79538C16.2938 7.37434 15.6781 7.37307 15.4598 7.79538L14.2185 10.1693V10.3714L16.515 14.6287H16.5151Z" fill="#F4BD62"/>
<path fill-rule="evenodd" clip-rule="evenodd" d="M16.4735 14.5298L18.7315 12.2106L16.4735 7.89868C16.2591 7.48937 15.7382 7.44647 15.526 7.85698L14.2782 10.2678L14.2408 10.3911L16.4735 14.5298Z" fill="#FFA50E"/>
<path fill-rule="evenodd" clip-rule="evenodd" d="M16.4735 14.5298L18.7315 12.2106L16.4735 7.89868C16.2591 7.48937 15.7382 7.44647 15.526 7.85698L14.2782 10.2678L14.2408 10.3911L16.4735 14.5298Z" fill="black"/>
<path fill-rule="evenodd" clip-rule="evenodd" d="M7 24.0025L7.0678 23.9341L7.31419 23.8337L16.3691 14.7867L16.4838 14.4735L14.225 10.1569L7 24.0025Z" fill="#F6820C"/>
<path fill-rule="evenodd" clip-rule="evenodd" d="M16.8051 28.5648L25 23.9815L22.6598 9.52783C22.5866 9.07563 22.0334 8.89688 21.7106 9.22109L7 24.0022L15.1479 28.5645C15.6629 28.8528 16.29 28.8529 16.8051 28.5648Z" fill="#FDE068"/>
<path fill-rule="evenodd" clip-rule="evenodd" d="M24.9266 23.9428L22.6042 9.59897C22.5316 9.15015 22.0715 8.96448 21.7512 9.28628L7.09094 23.9739L15.1494 28.4909C15.6604 28.7771 16.2828 28.7772 16.794 28.4913L24.9267 23.9428L24.9266 23.9428Z" fill="#FCCA3F"/>
<path fill-rule="evenodd" clip-rule="evenodd" d="M16.8051 28.4298C16.29 28.7179 15.6629 28.7177 15.148 28.4294L7.06567 23.9328L7.00012 24.0023L15.148 28.5645C15.6629 28.8528 16.2901 28.853 16.8051 28.5649L25.0001 23.9815L24.98 23.8577L16.8051 28.4299L16.8051 28.4298Z" fill="#EEAB37"/>
<defs>
<linearGradient id="paint0_linear" x1="0" y1="0" x2="0" y2="32" gradientUnits="userSpaceOnUse">
<stop stop-color="white"/>
<stop offset="1" stop-color="#F2F2F2"/>
</linearGradient>
</defs>
</svg>
