<svg width="32" height="32" viewBox="0 0 32 32" fill="none" xmlns="http://www.w3.org/2000/svg">
<path fill-rule="evenodd" clip-rule="evenodd" d="M16 32C24.8366 32 32 24.8366 32 16C32 7.16344 24.8366 0 16 0C7.16344 0 0 7.16344 0 16C0 24.8366 7.16344 32 16 32Z" fill="url(#paint0_linear)"/>
<g filter="url(#filter0_d)">
<path fill-rule="evenodd" clip-rule="evenodd" d="M16.4 20.4C17.21 20.4 17.8667 19.7434 17.8667 18.9333C17.8667 18.1233 17.21 17.4667 16.4 17.4667C15.59 17.4667 14.9333 18.1233 14.9333 18.9333C14.9333 19.7434 15.59 20.4 16.4 20.4Z" fill="#F7F7F7"/>
</g>
<path fill-rule="evenodd" clip-rule="evenodd" d="M9.28686 14.0674L15.5362 26.0779L5.03223 14.0674H9.28686Z" fill="#EA6C00"/>
<path fill-rule="evenodd" clip-rule="evenodd" d="M21.7872 14.0674L15.5379 26.0779L26.0419 14.0674H21.7872Z" fill="#EA6C00"/>
<path fill-rule="evenodd" clip-rule="evenodd" d="M9.28662 14.0674H21.7852L15.5359 26.0779L9.28662 14.0674Z" fill="#FDAD00"/>
<path fill-rule="evenodd" clip-rule="evenodd" d="M15.5359 7.41162L9.61554 8.02612L9.28662 14.0678L15.5359 7.41162Z" fill="#FDD231"/>
<path fill-rule="evenodd" clip-rule="evenodd" d="M15.5359 7.41162L21.4562 8.02612L21.7852 14.0678L15.5359 7.41162Z" fill="#FDD231"/>
<path fill-rule="evenodd" clip-rule="evenodd" d="M26.0419 14.0676L21.4583 8.02588L21.7872 14.0676H26.0419Z" fill="#FDAD00"/>
<path fill-rule="evenodd" clip-rule="evenodd" d="M5.03223 14.0676L9.61578 8.02588L9.28686 14.0676H5.03223Z" fill="#FDAD00"/>
<path fill-rule="evenodd" clip-rule="evenodd" d="M15.5359 7.41162L9.28662 14.0678H21.7852L15.5359 7.41162Z" fill="#FEEEB7"/>
<defs>
<filter id="filter0_d" x="13.9333" y="16.4667" width="4.93333" height="4.93333" filterUnits="userSpaceOnUse" color-interpolation-filters="sRGB">
<feFlood flood-opacity="0" result="BackgroundImageFix"/>
<feColorMatrix in="SourceAlpha" type="matrix" values="0 0 0 0 0 0 0 0 0 0 0 0 0 0 0 0 0 0 127 0"/>
<feOffset/>
<feGaussianBlur stdDeviation="0.5"/>
<feColorMatrix type="matrix" values="0 0 0 0 0 0 0 0 0 0 0 0 0 0 0 0 0 0 0.159703 0"/>
<feBlend mode="normal" in2="BackgroundImageFix" result="effect1_dropShadow"/>
<feBlend mode="normal" in="SourceGraphic" in2="effect1_dropShadow" result="shape"/>
</filter>
<linearGradient id="paint0_linear" x1="0" y1="0" x2="0" y2="32" gradientUnits="userSpaceOnUse">
<stop stop-color="white"/>
<stop offset="1" stop-color="#F2F2F2"/>
</linearGradient>
</defs>
</svg>
