<svg width="32" height="32" viewBox="0 0 32 32" fill="none" xmlns="http://www.w3.org/2000/svg">
<path fill-rule="evenodd" clip-rule="evenodd" d="M16 32C24.8366 32 32 24.8366 32 16C32 7.16344 24.8366 0 16 0C7.16344 0 0 7.16344 0 16C0 24.8366 7.16344 32 16 32Z" fill="url(#paint0_linear)"/>
<g filter="url(#filter0_d)">
<path fill-rule="evenodd" clip-rule="evenodd" d="M16.4 20.4C17.21 20.4 17.8667 19.7434 17.8667 18.9333C17.8667 18.1233 17.21 17.4667 16.4 17.4667C15.59 17.4667 14.9333 18.1233 14.9333 18.9333C14.9333 19.7434 15.59 20.4 16.4 20.4Z" fill="#F7F7F7"/>
</g>
<path d="M12.0664 25.9985C10.7086 25.4283 9.43805 23.9791 9.43502 22.4963C9.43132 20.8797 10.4859 19.5071 11.7975 18.6051C11.6398 19.1839 11.5538 19.7133 11.9445 20.231C12.3076 20.7123 12.9436 20.9462 13.5442 20.8192C14.9475 20.5208 15.0119 19.022 14.18 18.1488C13.3574 17.2841 12.5617 16.3074 12.8748 15.0534C13.0315 14.4248 13.4288 13.836 13.9321 13.4151C13.5453 14.4028 14.6446 15.3769 15.3689 15.862C16.6253 16.7038 18.0038 17.34 19.1591 18.3267C20.3743 19.3638 21.2716 20.766 21.0904 22.3923C20.8941 24.1551 19.4523 25.3811 17.8351 26C21.2525 25.2672 24.7836 22.6904 24.8559 19.0083C24.9158 15.979 22.7769 13.6477 20.1272 12.313L19.9888 12.2396C20.0615 12.411 20.0853 12.5569 20.0825 12.6874C20.1062 12.5911 20.1224 12.4922 20.1269 12.3901C20.1263 12.5114 20.1099 12.6321 20.0784 12.7494L20.0825 12.6874C20.0432 12.8482 19.9769 13.0017 19.8863 13.1416L19.9252 13.101C19.3966 13.9528 17.9655 14.1378 17.2586 13.2558C16.1221 11.837 17.2824 10.3073 17.4447 8.80484C17.6479 6.92187 16.4324 5.09389 14.9254 4C15.7554 5.30447 14.6619 7.03029 13.787 7.99513C12.9387 8.93039 11.907 9.71127 10.9705 10.5611C9.96448 11.4738 8.99734 12.4352 8.17044 13.5064C6.51663 15.6505 5.50418 18.3472 6.24821 21.0221C6.99176 23.6951 9.37509 25.3967 12.0665 25.9984L12.0664 25.9985Z" fill="#EE4323"/>
<defs>
<filter id="filter0_d" x="13.9333" y="16.4667" width="4.93333" height="4.93333" filterUnits="userSpaceOnUse" color-interpolation-filters="sRGB">
<feFlood flood-opacity="0" result="BackgroundImageFix"/>
<feColorMatrix in="SourceAlpha" type="matrix" values="0 0 0 0 0 0 0 0 0 0 0 0 0 0 0 0 0 0 127 0"/>
<feOffset/>
<feGaussianBlur stdDeviation="0.5"/>
<feColorMatrix type="matrix" values="0 0 0 0 0 0 0 0 0 0 0 0 0 0 0 0 0 0 0.159703 0"/>
<feBlend mode="normal" in2="BackgroundImageFix" result="effect1_dropShadow"/>
<feBlend mode="normal" in="SourceGraphic" in2="effect1_dropShadow" result="shape"/>
</filter>
<linearGradient id="paint0_linear" x1="0" y1="0" x2="0" y2="32" gradientUnits="userSpaceOnUse">
<stop stop-color="white"/>
<stop offset="1" stop-color="#F2F2F2"/>
</linearGradient>
</defs>
</svg>
